<svg width="367" height="108" xmlns="http://www.w3.org/2000/svg" xmlns:xlink="http://www.w3.org/1999/xlink" xml:space="preserve" overflow="hidden"><g transform="translate(-265 -233)"><path d="M578 233C607.823 233 632 257.177 632 287L632 287C632 316.823 607.823 341 578 341L319 341C289.177 341 265 316.823 265 287L265 287C265 257.177 289.177 233 319 233Z" fill="#28A1E0"/><path d="M578 233.5C607.547 233.5 631.5 257.453 631.5 287L631.5 287C631.5 316.547 607.547 340.5 578 340.5L319 340.5C289.453 340.5 265.5 316.547 265.5 287L265.5 287C265.5 257.453 289.453 233.5 319 233.5Z" stroke="#707070" fill="none"/><text fill="#FFFFFF" font-family="Segoe UI,Segoe UI_MSFontService,sans-serif" font-weight="700" font-size="40" transform="translate(344 304)">See More</text><text fill="#FFFFFF" font-family="Segoe UI,Segoe UI_MSFontService,sans-serif" font-weight="700" font-size="40" transform="translate(521 304)">...</text></g></svg>